<?xml version="1.0" encoding="iso-8859-1"?>
<!-- Generator: Adobe Illustrator 19.0.0, SVG Export Plug-In . SVG Version: 6.00 Build 0)  -->
<svg version="1.1" id="Capa_1" xmlns="http://www.w3.org/2000/svg" xmlns:xlink="http://www.w3.org/1999/xlink" x="0px" y="0px"
	 viewBox="0 0 512 512" style="enable-background:new 0 0 512 512;" xml:space="preserve">
<path style="fill:#FFC45C;" d="M325.217,97.378c-0.11-0.78,1.359-1.884,1.359-1.884c12.326-12.326,12.326-32.311,0-44.637
	s-32.311-12.326-44.637,0l-5.476-2.648c0-16.493-13.37-29.863-29.863-29.863c-15.927,0-28.939,12.469-29.813,28.178
	c-0.48-0.162-0.967-0.311-1.457-0.453c0.442-9.353-2.896-18.85-10.038-25.992c-13.455-13.454-35.268-13.454-48.723,0
	c-4.58,4.58-7.585,10.131-9.044,15.989c-3.479,0.258-6.818,1.02-9.94,2.22c-4.091-11.614-15.154-19.941-28.168-19.941
	c-16.493,0-29.863,13.37-29.863,29.863v2.648c-12.326-12.326-32.311-12.326-44.637,0c-11.943,11.944-12.313,31.08-1.107,43.47
	c-0.051,0.862-0.083,1.728-0.083,2.602c0,0.327,0.018,0.651,0.025,0.976C20.098,101.382,10,113.757,10,128.493
	c0,17.432,14.131,31.563,31.563,31.563h278.369c17.432,0,31.563-14.131,31.563-31.563
	C351.495,112.863,340.131,99.894,325.217,97.378z"/>
<polygon style="fill:#29C2E5;" points="502,211.057 468.064,501.989 348.936,501.989 315,211.057 "/>
<path style="fill:#FFFFFF;" d="M104.72,501.989L43.376,172.171c-3.894-20.937,12.174-40.27,33.47-40.27h1.473
	c17.647,0,32.369,13.485,33.914,31.064l29.796,339.023L104.72,501.989L104.72,501.989z"/>
<g>
	<path style="fill:#DB4949;" d="M146.67,131.901L146.67,131.901c18.802,0,34.044,15.242,34.044,34.044v336.043h-38.686
		l-29.272-333.062C111.008,149.025,126.692,131.901,146.67,131.901z"/>
	<path style="fill:#DB4949;" d="M256.71,501.989l61.343-329.818c3.894-20.937-12.174-40.27-33.47-40.27h-1.473
		c-17.647,0-32.369,13.485-33.914,31.064l-29.795,339.024H256.71z"/>
</g>
<path style="fill:#FFFFFF;" d="M214.759,131.901L214.759,131.901c-18.802,0-34.044,15.242-34.044,34.044v336.044h38.686
	l29.272-333.062C250.422,149.025,234.738,131.901,214.759,131.901z"/>
<path style="fill:#FC5271;" d="M338.653,413.833l4.655,39.906c54.538-17.533,102.869-48.888,140.877-89.949l9.091-77.936
	C458.85,344.976,404.128,390.811,338.653,413.833z"/>
<path d="M509.47,204.408c-1.897-2.132-4.616-3.351-7.47-3.351h-77.48l12.097-59.568H490.5c5.522,0,10-4.477,10-10v-28
	c0-5.523-4.478-10-10-10H417c-11.367,0-21.259,8.085-23.52,19.224l-17.939,88.344h-52.689l5.033-27.058
	c0.3-1.611,0.508-3.226,0.627-4.838c18.814-3.965,32.983-20.691,32.983-40.668c0-15.239-8.25-28.581-20.512-35.816
	c3.16-5.934,4.838-12.588,4.838-19.5c0-11.102-4.324-21.54-12.174-29.39c-7.851-7.85-18.288-12.173-29.39-12.173
	c-6.935,0-13.61,1.687-19.558,4.867c-5.021-16.273-20.2-28.133-38.1-28.133c-11.096,0-21.144,4.562-28.377,11.903
	c-1.664-2.564-3.612-4.995-5.858-7.241c-17.331-17.331-45.532-17.332-62.865,0c-3.405,3.405-6.12,7.237-8.187,11.316
	c-7.278-9.695-18.866-15.978-31.894-15.978c-17.102,0-31.719,10.827-37.367,25.985c-4.669-1.779-9.668-2.719-14.814-2.719
	c-11.102,0-21.539,4.323-29.389,12.173c-7.852,7.85-12.175,18.288-12.175,29.39c0,6.913,1.678,13.567,4.838,19.5
	C8.25,99.912,0,113.253,0,128.493c0,19.953,14.135,36.661,32.916,40.652c0.119,1.618,0.328,3.239,0.629,4.854l61.344,329.818
	c0.881,4.736,5.014,8.171,9.831,8.171h151.99c4.817,0,8.95-3.435,9.831-8.171l44.581-239.693l17.597,150.86c0,0.002,0,0.005,0,0.008
	l3.222,27.619l7.061,60.537c0.588,5.041,4.858,8.841,9.933,8.841h119.129c5.074,0,9.345-3.801,9.933-8.841l21.775-186.681
	l3.436-29.455l0,0l8.725-74.797C512.264,209.38,511.367,206.54,509.47,204.408z M325.369,149.334
	c-1.684-4.126-3.991-8.025-6.915-11.542c-5.261-6.33-12.075-10.966-19.662-13.546c1.979-9.863,10.703-17.317,21.139-17.317
	c11.89,0,21.563,9.673,21.563,21.563C341.495,138.502,334.63,146.915,325.369,149.334z M248.885,138.109
	c-0.531-0.651-1.077-1.291-1.646-1.913c-0.231-0.252-0.475-0.49-0.711-0.737c13.776-10.764,20.077-28.891,15.702-46.012
	c1.169-9.846,9.555-17.511,19.711-17.511c10.722,0,19.464,8.546,19.828,19.181c-12.006,5.859-20.79,17.333-22.906,30.983
	C266.772,123.236,256.122,129.183,248.885,138.109z M319.505,57.928c7.71,7.709,8.329,19.842,1.898,28.288
	c-2.13-15.126-12.778-27.546-26.924-32.248C302.576,49.854,312.744,51.166,319.505,57.928z M246.601,28.346
	c10.953,0,19.863,8.911,19.863,19.863c0,2.28,0.771,4.375,2.056,6.057c-7.548,2.707-14.047,7.628-18.714,13.979
	c-7.134-6.774-16.324-10.986-26.021-12.016c0.113-0.414,0.197-0.833,0.298-1.249c1.644-1.782,2.656-4.156,2.656-6.771
	C226.738,37.257,235.648,28.346,246.601,28.346z M152.489,78.095c2.962,1.32,6.385,1.121,9.176-0.537
	c2.79-1.657,4.603-4.565,4.861-7.8l0.013-0.159c0.234-2.92-0.825-5.796-2.896-7.868c-9.534-9.534-9.534-25.047,0-34.581
	c9.534-9.533,25.046-9.534,34.58,0c9.533,9.534,9.533,25.047,0,34.581c-0.063,0.063-0.126,0.127-0.188,0.192l-0.15,0.159
	c-3.28,3.462-3.66,8.76-0.905,12.654c2.754,3.895,7.874,5.301,12.233,3.36c12.318-5.489,26.799,0.07,32.286,12.386
	c0.213,0.478,1.046,4.74,1.814,6.134c1.681,10.656-3.887,21.558-14.2,26.152c-0.627,0.28-1.211,0.616-1.75,1
	c-2.008-0.602-4.06-1.066-6.145-1.377c-0.783-9.466-4.811-18.276-11.564-25.117c-7.622-7.721-17.795-12.012-28.644-12.083
	c-0.091,0-0.182,0-0.271,0c-10.749,0-20.871,4.153-28.527,11.711c-6.965,6.875-11.127,15.829-11.93,25.48
	c-2.045,0.302-4.058,0.75-6.03,1.332c-0.515-0.36-1.068-0.68-1.664-0.945c-10.524-4.688-16.105-15.945-14.085-26.806
	c0.476-1.037,1.388-4.78,1.7-5.48C125.689,78.166,140.173,72.609,152.489,78.095z M180.715,138.035
	c-5.296-6.448-12.385-11.363-20.496-13.992c0.413-4.889,2.514-9.425,6.043-12.909c3.887-3.837,9.024-5.945,14.481-5.945
	c0.045,0,0.092,0,0.138,0c5.508,0.036,10.671,2.213,14.54,6.133c3.415,3.459,5.455,7.911,5.863,12.695
	C193.143,126.641,186.026,131.567,180.715,138.035z M170.715,491.989H151.19l-28.472-323.958
	c-0.592-6.791,1.617-13.299,6.223-18.326c4.609-5.032,10.906-7.804,17.73-7.804c13.258,0,24.044,10.786,24.044,24.044
	L170.715,491.989L170.715,491.989z M82.635,122.107c-2.114-13.654-10.898-25.131-22.907-30.991
	c0.364-10.635,9.106-19.181,19.828-19.181c10.356,0,18.875,7.969,19.774,18.096c-4.07,16.884,2.176,34.654,15.688,45.309
	c-0.275,0.285-0.558,0.563-0.826,0.856c-0.57,0.622-1.116,1.262-1.646,1.913C105.321,129.2,94.695,123.259,82.635,122.107z
	 M109.419,28.346c10.952,0,19.862,8.911,19.862,19.863c0,3.662,1.975,6.855,4.912,8.597c-8.364,1.613-16.184,5.596-22.417,11.56
	C106.36,60.94,98.449,55.448,89.281,53.14c0.277-1.184,0.336-2.405,0.177-3.606c0.058-0.435,0.098-0.875,0.098-1.326
	C89.556,37.257,98.466,28.346,109.419,28.346z M41.99,57.928c6.761-6.762,16.929-8.075,25.026-3.96
	C52.869,58.67,42.221,71.092,40.092,86.219c-2.853-3.735-4.418-8.264-4.418-13.044C35.674,67.416,37.917,62.001,41.99,57.928z
	 M20,128.493c0-11.89,9.673-21.563,21.563-21.563c10.43,0,19.149,7.444,21.135,17.298c-7.611,2.576-14.448,7.219-19.723,13.565
	c-2.92,3.513-5.225,7.406-6.909,11.527C26.835,146.88,20,138.48,20,128.493z M53.207,170.343
	c-1.311-7.048,0.566-14.253,5.148-19.766c4.583-5.513,11.322-8.675,18.491-8.675h1.473c12.556,0,22.853,9.432,23.952,21.939
	l0.522,5.943c0,0.006,0,0.012,0.001,0.018l28.316,322.187h-18.08L53.207,170.343z M190.715,165.946
	c0-13.258,10.786-24.044,24.044-24.044c6.824,0,13.121,2.771,17.73,7.804c4.61,5.032,6.819,11.548,6.222,18.346L210.24,491.989
	h-19.525L190.715,165.946L190.715,165.946z M248.398,491.989h-18.08l28.841-328.148c1.099-12.507,11.396-21.939,23.951-21.939h1.473
	c7.169,0,13.908,3.162,18.491,8.675c4.582,5.513,6.459,12.718,5.148,19.766L248.398,491.989z M413.08,116.692
	c0.377-1.856,2.025-3.203,3.92-3.203h63.5v8h-52.057c-4.756,0-8.854,3.349-9.8,8.01l-14.479,71.297
	c-0.018,0.087-0.024,0.174-0.04,0.261h-8.176L413.08,116.692z M490.766,221.057l-7.175,61.512
	c-31.467,53.15-79.545,94.43-136.489,117.391l-15.626-133.97h95.7c5.522,0,10-4.477,10-10c0-5.523-4.478-10-10-10h-98.033
	l-2.908-24.932L490.766,221.057L490.766,221.057z M351.233,435.372l-1.734-14.867c50.969-19.477,95.589-52.546,129.116-95.285
	l-3.982,34.143c-34.167,36.171-76.378,63.943-122.83,80.892L351.233,435.372z M459.163,491.989H357.837l-3.658-31.359
	c43.121-15.044,82.923-38.821,116.766-69.646L459.163,491.989z"/>
<path d="M459.527,265.988h0.132c5.522,0,10-4.477,10-10c0-5.523-4.478-10-10-10h-0.132c-5.522,0-10,4.477-10,10
	S454.005,265.988,459.527,265.988z"/>
<g>
</g>
<g>
</g>
<g>
</g>
<g>
</g>
<g>
</g>
<g>
</g>
<g>
</g>
<g>
</g>
<g>
</g>
<g>
</g>
<g>
</g>
<g>
</g>
<g>
</g>
<g>
</g>
<g>
</g>
</svg>
